<?xml version="1.0" encoding="UTF-8"?>
<svg xmlns="http://www.w3.org/2000/svg" version="1.1" width="700" height="430" viewBox="0 0 700 430">
  <!-- Generator: Adobe Illustrator 28.7.1, SVG Export Plug-In . SVG Version: 1.2.0 Build 142)  -->
  <g>
    <g id="Layer_1">
      <g>
        <path d="M71.76,209.7h-20.47V10.2h20.47v199.5Z" fill="var(--text-color)" stroke-width="0"/>
        <path d="M138.17,28.84h-18.9v180.86h-20.74V28.84h-18.9V10.2h58.54v18.64Z" fill="var(--text-color)" stroke-width="0"/>
        <path d="M168.62,8.89c5.42,0,10.15,1.4,14.17,4.2,4.02,2.8,7.17,7.92,9.45,15.36,2.27,7.44,3.41,17.98,3.41,31.63v13.65h-18.37v-12.6c0-8.75-.35-15.7-1.05-20.87-.7-5.16-1.67-8.83-2.89-11.02-1.23-2.19-2.72-3.28-4.46-3.28s-3.41,1.62-4.99,4.86c-1.57,3.24-2.36,7.48-2.36,12.73,0,9.98,1.18,19.25,3.54,27.82,2.36,8.58,5.29,16.8,8.79,24.67,3.5,7.88,6.96,15.88,10.37,24.02,3.41,8.14,6.3,16.67,8.66,25.59,2.36,8.92,3.54,18.73,3.54,29.4,0,6.3-.96,12.21-2.89,17.72-1.93,5.51-4.86,9.93-8.79,13.26-3.94,3.33-8.88,4.99-14.83,4.99-5.25,0-9.98-1.4-14.17-4.2-4.2-2.8-7.48-7.96-9.84-15.49-2.36-7.52-3.54-18.02-3.54-31.5v-11.02h18.9v10.24c0,8.75.35,15.66,1.05,20.74.7,5.08,1.71,8.71,3.02,10.89,1.31,2.19,2.76,3.28,4.33,3.28,1.75,0,3.1-.87,4.07-2.62.96-1.75,1.71-3.98,2.23-6.69.52-2.71.79-5.55.79-8.53,0-9.45-1.14-18.33-3.41-26.64-2.28-8.31-5.16-16.41-8.66-24.28-3.5-7.88-6.96-15.88-10.37-24.02-3.41-8.14-6.3-16.8-8.66-25.99-2.36-9.19-3.54-19.47-3.54-30.84,0-9.97,2.45-18.38,7.35-25.2,4.9-6.82,11.29-10.24,19.16-10.24Z" fill="var(--text-color)" stroke-width="0"/>
        <path d="M262.59,10.2l9.97,93.19,2.1,34.65h-1.58l1.84-34.65,9.97-93.19h28.61v199.5h-18.64l1.31-153.56V23.33l-2.89,32.81-10.76,91.35h-17.32l-11.02-91.35-2.62-32.81v32.81l1.31,153.56h-18.64V10.2h28.35Z" fill="var(--text-color)" stroke-width="0"/>
        <path d="M322.43,10.2h19.42l7.88,161.7,2.1,32.29h-1.58l2.1-32.29,9.19-161.7h25.72l8.66,161.44,2.1,32.55h-1.31l2.1-32.55,8.14-161.44h19.16l-13.65,199.5h-28.88l-8.14-161.44-2.1-32.55h1.58l-1.84,32.55-8.4,161.44h-28.87l-13.39-199.5Z" fill="var(--text-color)" stroke-width="0"/>
        <path d="M455.78,209.7h-20.47V10.2h20.47v199.5Z" fill="var(--text-color)" stroke-width="0"/>
        <path d="M522.19,28.84h-18.9v180.86h-20.74V28.84h-18.9V10.2h58.54v18.64Z" fill="var(--text-color)" stroke-width="0"/>
        <path d="M535.32,10.2h29.14l16.28,199.5h-20.47l-9.19-161.44-2.1-32.55h1.31l-1.84,32.55-9.71,161.44h-19.69l16.27-199.5ZM532.43,170.85v-18.11h35.96v18.11h-35.96Z" fill="var(--text-color)" stroke-width="0"/>
        <path d="M628.5,209.7v-93.71h-18.37v93.71h-20.21V10.2h20.21v86.36h18.37V10.2h20.21v199.5h-20.21Z" fill="var(--text-color)" stroke-width="0"/>
      </g>
      <g>
        <path d="M49.34,236.99l1.71,8.29v176.96h-14.14v-185.25h12.43ZM72.99,288.66c0-10.56-.65-18.6-1.95-24.13-1.3-5.52-3.25-9.3-5.85-11.33-2.6-2.03-5.77-3.05-9.51-3.05h-11.21v-13.16h8.77c8.12,0,14.66,1.63,19.62,4.88,4.96,3.25,8.61,8.65,10.97,16.21,2.35,7.56,3.53,17.76,3.53,30.59s-1.18,23.03-3.53,30.59c-2.36,7.56-6.01,12.96-10.97,16.21-4.96,3.25-11.5,4.88-19.62,4.88h-8.77v-13.16h11.21c3.74,0,6.9-1.01,9.51-3.05,2.6-2.03,4.55-5.81,5.85-11.33,1.3-5.52,1.95-13.57,1.95-24.13Z" fill="var(--text-color)" stroke-width="0"/>
        <path d="M134.9,422.24v-88.48h-22.18v88.48h-14.38v-185.25h14.38v83.12h22.18v-83.12h14.38v185.25h-14.38Z" fill="var(--text-color)" stroke-width="0"/>
        <path d="M162.44,329.61c0-19.99.57-36.2,1.71-48.63,1.13-12.43,2.84-21.9,5.12-28.4,2.27-6.5,5.03-10.93,8.29-13.28,3.25-2.35,6.91-3.53,10.97-3.53s7.96,1.18,11.21,3.53c3.25,2.36,5.97,6.79,8.17,13.28,2.19,6.5,3.86,15.97,5,28.4,1.14,12.43,1.71,28.64,1.71,48.63s-.57,36.4-1.71,48.75c-1.14,12.35-2.8,21.78-5,28.27-2.19,6.5-4.92,10.93-8.17,13.28-3.25,2.35-6.99,3.53-11.21,3.53s-7.72-1.18-10.97-3.53c-3.25-2.35-6.01-6.78-8.29-13.28-2.28-6.5-3.98-15.92-5.12-28.27-1.14-12.35-1.71-28.6-1.71-48.75ZM199.98,329.61c0-17.06-.24-30.96-.73-41.68-.49-10.72-1.22-18.97-2.19-24.74-.98-5.77-2.19-9.75-3.66-11.94-1.46-2.19-3.09-3.29-4.88-3.29s-3.37,1.1-4.75,3.29c-1.38,2.19-2.56,6.18-3.53,11.94-.97,5.77-1.71,14.02-2.19,24.74-.49,10.72-.73,24.62-.73,41.68s.24,31,.73,41.8c.49,10.81,1.22,19.1,2.19,24.86.98,5.77,2.15,9.75,3.53,11.94,1.38,2.19,2.96,3.29,4.75,3.29s3.41-1.1,4.88-3.29c1.46-2.19,2.68-6.17,3.66-11.94.98-5.77,1.71-14.05,2.19-24.86.49-10.8.73-24.74.73-41.8Z" fill="var(--text-color)" stroke-width="0"/>
        <path d="M269.69,250.15h-18.52v172.08h-14.38v-172.08h-18.52v-13.16h51.43v13.16Z" fill="var(--text-color)" stroke-width="0"/>
        <path d="M272.37,329.61c0-19.99.57-36.2,1.71-48.63,1.13-12.43,2.84-21.9,5.12-28.4,2.27-6.5,5.03-10.93,8.29-13.28,3.25-2.35,6.91-3.53,10.97-3.53s7.96,1.18,11.21,3.53c3.25,2.36,5.97,6.79,8.17,13.28,2.19,6.5,3.86,15.97,5,28.4,1.14,12.43,1.71,28.64,1.71,48.63s-.57,36.4-1.71,48.75c-1.14,12.35-2.8,21.78-5,28.27-2.19,6.5-4.92,10.93-8.17,13.28-3.25,2.35-6.99,3.53-11.21,3.53s-7.72-1.18-10.97-3.53c-3.25-2.35-6.01-6.78-8.29-13.28-2.28-6.5-3.98-15.92-5.12-28.27-1.14-12.35-1.71-28.6-1.71-48.75ZM309.91,329.61c0-17.06-.24-30.96-.73-41.68-.49-10.72-1.22-18.97-2.19-24.74-.98-5.77-2.19-9.75-3.66-11.94-1.46-2.19-3.09-3.29-4.88-3.29s-3.37,1.1-4.75,3.29c-1.38,2.19-2.56,6.18-3.53,11.94-.97,5.77-1.71,14.02-2.19,24.74-.49,10.72-.73,24.62-.73,41.68s.24,31,.73,41.8c.49,10.81,1.22,19.1,2.19,24.86.98,5.77,2.15,9.75,3.53,11.94,1.38,2.19,2.96,3.29,4.75,3.29s3.41-1.1,4.88-3.29c1.46-2.19,2.68-6.17,3.66-11.94.98-5.77,1.71-14.05,2.19-24.86.49-10.8.73-24.74.73-41.8Z" fill="var(--text-color)" stroke-width="0"/>
        <path d="M400.58,409.32v12.92h-36.56v-185.25h36.56v13.16h-22.42v68.25h19.99v13.65h-19.99v77.27h22.42Z" fill="var(--text-color)" stroke-width="0"/>
        <path d="M422.03,236.99l2.19,8.29v169.4l-.98,7.56h-13.16v-185.25h11.94ZM446.16,329.61c0-18.04-.41-32.38-1.22-43.02-.81-10.64-2.03-18.56-3.66-23.76-1.63-5.2-3.66-8.61-6.09-10.24-2.44-1.62-5.28-2.44-8.53-2.44h-9.02v-13.16h7.07c6.17,0,11.54,1.02,16.09,3.05,4.55,2.03,8.29,6.18,11.21,12.43,2.92,6.26,5.12,15.56,6.58,27.91,1.46,12.35,2.19,28.76,2.19,49.24s-.73,37.13-2.19,49.48c-1.46,12.35-3.66,21.61-6.58,27.79-2.92,6.18-6.67,10.28-11.21,12.31-4.55,2.03-9.91,3.05-16.09,3.05h-7.07v-12.92h9.02c3.25,0,6.09-.81,8.53-2.44,2.44-1.62,4.47-5.03,6.09-10.24,1.62-5.2,2.84-13.12,3.66-23.76.81-10.64,1.22-25.06,1.22-43.27Z" fill="var(--text-color)" stroke-width="0"/>
        <path d="M488.33,422.24h-14.38v-185.25h14.38v185.25Z" fill="var(--text-color)" stroke-width="0"/>
        <path d="M548.29,250.15h-18.52v172.08h-14.38v-172.08h-18.53v-13.16h51.43v13.16Z" fill="var(--text-color)" stroke-width="0"/>
        <path d="M550.97,329.61c0-19.99.57-36.2,1.71-48.63,1.13-12.43,2.84-21.9,5.12-28.4,2.27-6.5,5.04-10.93,8.29-13.28,3.25-2.35,6.91-3.53,10.97-3.53s7.96,1.18,11.21,3.53c3.25,2.36,5.97,6.79,8.17,13.28,2.19,6.5,3.86,15.97,5,28.4,1.13,12.43,1.71,28.64,1.71,48.63s-.57,36.4-1.71,48.75c-1.14,12.35-2.8,21.78-5,28.27-2.19,6.5-4.92,10.93-8.17,13.28-3.25,2.35-6.99,3.53-11.21,3.53s-7.72-1.18-10.97-3.53c-3.25-2.35-6.01-6.78-8.29-13.28-2.28-6.5-3.98-15.92-5.12-28.27-1.14-12.35-1.71-28.6-1.71-48.75ZM588.51,329.61c0-17.06-.24-30.96-.73-41.68s-1.22-18.97-2.19-24.74c-.97-5.77-2.19-9.75-3.66-11.94-1.46-2.19-3.09-3.29-4.88-3.29s-3.37,1.1-4.75,3.29c-1.38,2.19-2.56,6.18-3.53,11.94-.98,5.77-1.71,14.02-2.19,24.74-.49,10.72-.73,24.62-.73,41.68s.24,31,.73,41.8c.49,10.81,1.22,19.1,2.19,24.86.97,5.77,2.15,9.75,3.53,11.94,1.38,2.19,2.96,3.29,4.75,3.29s3.41-1.1,4.88-3.29c1.46-2.19,2.68-6.17,3.66-11.94.97-5.77,1.71-14.05,2.19-24.86.49-10.8.73-24.74.73-41.8Z" fill="var(--text-color)" stroke-width="0"/>
        <path d="M616.53,236.99h12.43l1.71,8.29v176.96h-14.14v-185.25ZM632.87,335.46h-8.77v-11.94h11.21c3.74,0,6.91-.97,9.51-2.92,2.6-1.95,4.55-5.56,5.85-10.85,1.3-5.28,1.95-12.88,1.95-22.79s-.65-17.75-1.95-23.03c-1.3-5.28-3.25-8.9-5.85-10.85-2.6-1.95-5.77-2.92-9.51-2.92h-11.21v-13.16h8.77c7.96,0,14.46,1.58,19.5,4.75,5.04,3.17,8.73,8.37,11.09,15.6,2.35,7.23,3.53,17.1,3.53,29.62s-1.38,22.55-4.14,29.13c-2.77,6.58-6.75,11.33-11.94,14.26h-5.61v3.66c-3.58.97-7.72,1.46-12.43,1.46ZM640.18,328.64h12.92l13.41,93.6h-13.89l-12.43-93.6Z" fill="var(--text-color)" stroke-width="0"/>
      </g>
    </g>
  </g>
</svg>