<?xml version="1.0" encoding="UTF-8"?>
<svg id="Layer_1" xmlns="http://www.w3.org/2000/svg" width="700" height="430" viewBox="0 0 700 430">
  <g>
    <path d="M42.98,279.47h-21.58V38.11h21.58v241.37Z" fill="var(--text-color)" stroke-width="0"/>
    <path d="M112.96,60.66h-19.92v218.82h-21.85V60.66h-19.92v-22.55h61.69v22.55Z" fill="var(--text-color)" stroke-width="0"/>
    <path d="M145.05,36.52c5.71,0,10.69,1.7,14.94,5.08,4.24,3.39,7.56,9.58,9.96,18.58,2.39,9,3.6,21.75,3.6,38.27v16.51h-19.36v-15.24c0-10.58-.37-19-1.11-25.25-.74-6.24-1.75-10.69-3.04-13.34-1.29-2.65-2.86-3.97-4.7-3.97s-3.6,1.96-5.26,5.88c-1.66,3.92-2.49,9.05-2.49,15.4,0,12.07,1.25,23.29,3.73,33.66,2.49,10.38,5.58,20.33,9.27,29.85,3.69,9.53,7.33,19.21,10.93,29.06s6.64,20.17,9.13,30.96c2.49,10.8,3.73,22.66,3.73,35.57,0,7.62-1.02,14.77-3.04,21.44-2.03,6.67-5.12,12.02-9.27,16.04-4.15,4.02-9.36,6.03-15.63,6.03-5.53,0-10.51-1.69-14.94-5.08-4.43-3.38-7.88-9.63-10.37-18.74-2.49-9.1-3.73-21.8-3.73-38.11v-13.34h19.92v12.39c0,10.59.37,18.95,1.11,25.09.73,6.14,1.8,10.54,3.18,13.18,1.38,2.65,2.9,3.97,4.56,3.97,1.84,0,3.27-1.06,4.29-3.18,1.01-2.11,1.8-4.81,2.35-8.1.55-3.28.83-6.72.83-10.32,0-11.43-1.2-22.18-3.6-32.24-2.4-10.05-5.44-19.85-9.13-29.38-3.69-9.53-7.33-19.21-10.93-29.06s-6.64-20.33-9.13-31.44c-2.49-11.12-3.73-23.55-3.73-37.32,0-12.07,2.58-22.23,7.75-30.49,5.16-8.26,11.9-12.39,20.19-12.39Z" fill="var(--text-color)" stroke-width="0"/>
    <path d="M244.08,38.11l10.51,112.74,2.21,41.92h-1.66l1.94-41.92,10.51-112.74h30.15v241.37h-19.64l1.38-185.79v-39.7l-3.04,39.7-11.34,110.52h-18.26l-11.62-110.52-2.77-39.7v39.7l1.38,185.79h-19.64V38.11h29.88Z" fill="var(--text-color)" stroke-width="0"/>
    <path d="M307.15,38.11h20.47l8.3,195.63,2.21,39.06h-1.66l2.21-39.06,9.68-195.63h27.11l9.13,195.32,2.21,39.38h-1.38l2.21-39.38,8.58-195.32h20.19l-14.38,241.37h-30.43l-8.58-195.32-2.21-39.38h1.66l-1.94,39.38-8.85,195.32h-30.43l-14.11-241.37Z" fill="var(--text-color)" stroke-width="0"/>
    <path d="M447.68,279.47h-21.58V38.11h21.58v241.37Z" fill="var(--text-color)" stroke-width="0"/>
    <path d="M517.67,60.66h-19.92v218.82h-21.85V60.66h-19.92v-22.55h61.69v22.55Z" fill="var(--text-color)" stroke-width="0"/>
    <path d="M531.5,38.11h30.71l17.15,241.37h-21.58l-9.68-195.32-2.21-39.38h1.38l-1.94,39.38-10.24,195.32h-20.75l17.15-241.37ZM528.46,232.47v-21.91h37.9v21.91h-37.9Z" fill="var(--text-color)" stroke-width="0"/>
    <path d="M629.71,279.47v-113.38h-19.36v113.38h-21.3V38.11h21.3v104.49h19.36V38.11h21.3v241.37h-21.3Z" fill="var(--text-color)" stroke-width="0"/>
  </g>
  <g>
    <path d="M17.21,403.33h-8.61v-39.78L.44,307.05h8.39l3.75,37.12,1.1,10.26h-1.1l1.1-10.26,3.75-37.12h7.94l-8.17,56.5v39.78Z" fill="var(--text-color)" stroke-width="0"/>
    <path d="M25.82,355.19c0-10.56.28-19.06.83-25.53.55-6.46,1.36-11.36,2.43-14.69,1.07-3.33,2.41-5.59,4.03-6.78,1.62-1.18,3.42-1.77,5.41-1.77s3.9.59,5.52,1.77c1.62,1.18,2.96,3.44,4.03,6.78,1.07,3.34,1.88,8.23,2.43,14.69.55,6.46.83,14.97.83,25.53s-.28,19.07-.83,25.53c-.55,6.46-1.36,11.36-2.43,14.7-1.07,3.34-2.41,5.6-4.03,6.78-1.62,1.18-3.46,1.77-5.52,1.77s-3.79-.59-5.41-1.77c-1.62-1.18-2.96-3.44-4.03-6.78-1.07-3.34-1.88-8.23-2.43-14.7-.55-6.46-.83-14.97-.83-25.53ZM42.48,355.19c0-8.53-.09-15.45-.28-20.77-.18-5.32-.44-9.42-.77-12.29-.33-2.87-.74-4.83-1.21-5.89-.48-1.05-1.05-1.58-1.71-1.58s-1.21.53-1.66,1.58c-.44,1.06-.83,3.02-1.16,5.89-.33,2.87-.59,6.97-.77,12.29-.18,5.32-.28,12.25-.28,20.77s.09,15.46.28,20.78c.18,5.32.44,9.42.77,12.29.33,2.87.72,4.83,1.16,5.89.44,1.06.99,1.58,1.66,1.58s1.23-.53,1.71-1.58c.48-1.05.88-3.02,1.21-5.89.33-2.87.59-6.97.77-12.29.18-5.32.28-12.24.28-20.78Z" fill="var(--text-color)" stroke-width="0"/>
    <path d="M55.83,371.15v-64.1h8.5v59.16c0,6.25.11,11.3.33,15.14.22,3.84.48,6.82.77,8.93.29,2.11.66,3.55,1.1,4.31.44.76,1.03,1.14,1.77,1.14.59,0,1.12-.38,1.6-1.14.48-.76.86-2.19,1.16-4.31.29-2.11.53-5.09.72-8.93.18-3.84.28-8.89.28-15.14v-59.16h8.5v64.1c0,8.61-.42,15.31-1.27,20.08-.85,4.77-2.17,8.09-3.97,9.94-1.8,1.86-4.14,2.79-7.01,2.79s-5.32-.93-7.12-2.79c-1.8-1.86-3.15-5.17-4.03-9.94-.88-4.77-1.32-11.46-1.32-20.08Z" fill="var(--text-color)" stroke-width="0"/>
    <path d="M108.03,316.05h-7.94v87.28h-8.72v-87.28h-7.94v-8.99h24.61v8.99Z" fill="var(--text-color)" stroke-width="0"/>
    <path d="M110.89,371.15v-64.1h8.5v59.16c0,6.25.11,11.3.33,15.14.22,3.84.48,6.82.77,8.93.29,2.11.66,3.55,1.1,4.31.44.76,1.03,1.14,1.77,1.14.59,0,1.12-.38,1.6-1.14.48-.76.86-2.19,1.16-4.31.29-2.11.53-5.09.72-8.93.18-3.84.28-8.89.28-15.14v-59.16h8.5v64.1c0,8.61-.42,15.31-1.27,20.08-.85,4.77-2.17,8.09-3.97,9.94-1.8,1.86-4.14,2.79-7.01,2.79s-5.32-.93-7.12-2.79c-1.8-1.86-3.15-5.17-4.03-9.94-.88-4.77-1.32-11.46-1.32-20.08Z" fill="var(--text-color)" stroke-width="0"/>
    <path d="M141.35,307.05h7.28l1.1,5.07v86.65l-1.1,4.56h-7.28v-96.28ZM165.84,332.39c0,5.74-.64,10.3-1.93,13.68-1.29,3.38-3.07,5.79-5.35,7.22,2.35,1.61,4.21,4.27,5.57,7.98,1.36,3.72,2.04,8.74,2.04,15.07,0,9.97-1.36,16.96-4.08,20.96-2.72,4.01-6.88,6.02-12.47,6.02h-3.75v-8.99h4.97c1.47,0,2.67-.44,3.59-1.33.92-.89,1.66-2.66,2.21-5.32s.83-6.44.83-11.34-.26-8.66-.77-11.27c-.52-2.62-1.25-4.43-2.21-5.45-.96-1.01-2.17-1.52-3.64-1.52h-3.42v-9.37h3.42c1.4,0,2.56-.44,3.48-1.33.92-.89,1.64-2.53,2.15-4.94.51-2.41.77-5.76.77-10.07s-.26-7.87-.77-10.2c-.52-2.32-1.23-3.93-2.15-4.81-.92-.89-2.08-1.33-3.48-1.33h-4.97v-8.99h3.75c5.74,0,9.88,1.96,12.41,5.89,2.54,3.93,3.81,10.41,3.81,19.45Z" fill="var(--text-color)" stroke-width="0"/>
    <path d="M188.68,394.33v8.99h-17.77v-96.28h17.77v8.99h-9.38v32.18h8.28v9.5h-8.28v36.61h9.38Z" fill="var(--text-color)" stroke-width="0"/>
    <path d="M225.87,316.05h-7.94v87.28h-8.72v-87.28h-7.94v-8.99h24.61v8.99Z" fill="var(--text-color)" stroke-width="0"/>
    <path d="M245.51,403.33v-45.22h-7.72v45.22h-8.5v-96.28h8.5v41.68h7.72v-41.68h8.5v96.28h-8.5Z" fill="var(--text-color)" stroke-width="0"/>
    <path d="M259.63,371.15v-64.1h8.5v59.16c0,6.25.11,11.3.33,15.14.22,3.84.48,6.82.77,8.93.29,2.11.66,3.55,1.1,4.31.44.76,1.03,1.14,1.77,1.14.59,0,1.12-.38,1.6-1.14.48-.76.86-2.19,1.16-4.31.29-2.11.53-5.09.72-8.93.18-3.84.28-8.89.28-15.14v-59.16h8.5v64.1c0,8.61-.42,15.31-1.27,20.08-.85,4.77-2.17,8.09-3.97,9.94-1.8,1.86-4.14,2.79-7.01,2.79s-5.32-.93-7.12-2.79c-1.8-1.86-3.15-5.17-4.03-9.94-.88-4.77-1.32-11.46-1.32-20.08Z" fill="var(--text-color)" stroke-width="0"/>
    <path d="M302,307.05l4.19,44.97.88,16.72h-.66l.77-16.72,4.19-44.97h12.03v96.28h-7.83l.55-74.11v-15.83l-1.21,15.83-4.52,44.08h-7.28l-4.63-44.08-1.1-15.83v15.83l.55,74.11h-7.83v-96.28h11.92Z" fill="var(--text-color)" stroke-width="0"/>
    <path d="M329.48,307.05h7.28l1.1,5.07v86.65l-1.1,4.56h-7.28v-96.28ZM353.97,332.39c0,5.74-.64,10.3-1.93,13.68-1.29,3.38-3.07,5.79-5.35,7.22,2.35,1.61,4.21,4.27,5.57,7.98,1.36,3.72,2.04,8.74,2.04,15.07,0,9.97-1.36,16.96-4.08,20.96-2.72,4.01-6.88,6.02-12.47,6.02h-3.75v-8.99h4.97c1.47,0,2.66-.44,3.59-1.33.92-.89,1.65-2.66,2.21-5.32.55-2.66.83-6.44.83-11.34s-.26-8.66-.77-11.27c-.52-2.62-1.25-4.43-2.21-5.45-.96-1.01-2.17-1.52-3.64-1.52h-3.42v-9.37h3.42c1.4,0,2.55-.44,3.47-1.33s1.64-2.53,2.15-4.94c.51-2.41.77-5.76.77-10.07s-.26-7.87-.77-10.2c-.52-2.32-1.23-3.93-2.15-4.81s-2.08-1.33-3.47-1.33h-4.97v-8.99h3.75c5.74,0,9.88,1.96,12.41,5.89,2.54,3.93,3.81,10.41,3.81,19.45Z" fill="var(--text-color)" stroke-width="0"/>
    <path d="M370.97,307.05l8.17,74.23.99,15.71v-15.71l-.88-74.23h7.83v96.28h-12.03l-8.05-74.11-1.1-15.83v15.83l.99,74.11h-7.83v-96.28h11.92Z" fill="var(--text-color)" stroke-width="0"/>
    <path d="M397.67,307.05h12.25l6.84,96.28h-8.61l-3.86-77.91-.88-15.71h.55l-.77,15.71-4.08,77.91h-8.28l6.84-96.28ZM396.45,384.58v-8.74h15.12v8.74h-15.12Z" fill="var(--text-color)" stroke-width="0"/>
    <path d="M429.22,403.33h-8.61v-96.28h8.61v96.28Z" fill="var(--text-color)" stroke-width="0"/>
    <path d="M435.4,403.33v-96.28h8.61v87.28h10.48v8.99h-19.09Z" fill="var(--text-color)" stroke-width="0"/>
    <path d="M476.56,307.05l1.43,5.07v86.52l-.77,4.69h-7.61v-96.28h6.95ZM485.72,355.19c0-9.2-.15-16.45-.44-21.72-.29-5.28-.74-9.16-1.32-11.65-.59-2.49-1.36-4.07-2.32-4.75-.96-.67-2.13-1.01-3.53-1.01h-3.97v-8.99h2.98c3.02,0,5.61.51,7.78,1.52,2.17,1.01,3.97,3.17,5.41,6.46,1.43,3.29,2.48,8.13,3.14,14.5.66,6.38.99,14.93.99,25.65s-.33,19.3-.99,25.72c-.66,6.42-1.71,11.25-3.14,14.5-1.43,3.25-3.24,5.38-5.41,6.4-2.17,1.01-4.76,1.52-7.78,1.52h-2.98v-8.99h3.97c1.4,0,2.57-.32,3.53-.95.96-.63,1.73-2.22,2.32-4.75.59-2.53,1.03-6.44,1.32-11.72.29-5.28.44-12.52.44-21.73Z" fill="var(--text-color)" stroke-width="0"/>
    <path d="M517.27,394.33v8.99h-17.76v-96.28h17.76v8.99h-9.38v32.18h8.28v9.5h-8.28v36.61h9.38Z" fill="var(--text-color)" stroke-width="0"/>
    <path d="M530.62,306.42c2.28,0,4.27.68,5.96,2.03,1.69,1.35,3.02,3.82,3.97,7.41.96,3.59,1.43,8.68,1.43,15.26v6.59h-7.72v-6.08c0-4.22-.15-7.58-.44-10.07-.29-2.49-.7-4.26-1.21-5.32-.52-1.05-1.14-1.58-1.88-1.58s-1.43.78-2.1,2.34c-.66,1.56-.99,3.61-.99,6.14,0,4.81.5,9.29,1.49,13.43.99,4.14,2.22,8.11,3.7,11.91,1.47,3.8,2.92,7.66,4.36,11.59,1.43,3.93,2.65,8.04,3.64,12.35.99,4.31,1.49,9.04,1.49,14.19,0,3.04-.41,5.89-1.21,8.55-.81,2.66-2.04,4.79-3.7,6.4-1.66,1.61-3.73,2.41-6.23,2.41-2.21,0-4.19-.68-5.96-2.03-1.76-1.35-3.14-3.84-4.14-7.47-.99-3.63-1.49-8.7-1.49-15.2v-5.32h7.94v4.94c0,4.22.15,7.56.44,10.01.29,2.45.72,4.2,1.27,5.26.55,1.06,1.16,1.58,1.82,1.58.73,0,1.3-.42,1.71-1.27.4-.84.72-1.92.94-3.23.22-1.31.33-2.68.33-4.12,0-4.56-.48-8.85-1.43-12.86-.96-4.01-2.17-7.92-3.64-11.72-1.47-3.8-2.92-7.66-4.36-11.59-1.43-3.93-2.65-8.11-3.64-12.54-.99-4.43-1.49-9.39-1.49-14.88,0-4.81,1.03-8.87,3.09-12.16,2.06-3.29,4.74-4.94,8.05-4.94Z" fill="var(--text-color)" stroke-width="0"/>
    <path d="M555.34,403.33h-8.61v-96.28h8.61v96.28Z" fill="var(--text-color)" stroke-width="0"/>
    <path d="M560.41,355.19c0-10.56.28-19.06.83-25.53s1.36-11.36,2.43-14.69c1.07-3.33,2.41-5.59,4.03-6.78,1.62-1.18,3.42-1.77,5.41-1.77,2.35,0,4.38.76,6.07,2.28,1.69,1.52,3,4.18,3.92,7.98.92,3.8,1.53,9.08,1.82,15.83l.11,7.73h-7.95l-.33-7.35c-.15-4.73-.37-8.42-.66-11.08-.29-2.66-.68-4.52-1.16-5.57-.48-1.05-1.09-1.58-1.82-1.58-.66,0-1.21.53-1.66,1.58-.44,1.06-.83,3.02-1.16,5.89-.33,2.87-.59,6.97-.77,12.29-.18,5.32-.28,12.25-.28,20.77,0,8.95.09,16.13.28,21.54.18,5.41.44,9.48.77,12.22.33,2.75.75,4.56,1.27,5.45.51.89,1.14,1.33,1.88,1.33.51,0,1.07-.08,1.66-.25.59-.17,1.18-.51,1.76-1.01v4.43c-.81,1.61-1.82,2.85-3.03,3.74s-2.48,1.33-3.81,1.33c-1.18,0-2.26-.3-3.25-.89s-1.88-1.75-2.65-3.48c-.77-1.73-1.43-4.37-1.99-7.92s-.98-8.28-1.27-14.19c-.29-5.91-.44-13.34-.44-22.3ZM573.21,359.62v-8.99h11.7v8.99h-11.7ZM584.91,403.33h-7.06l-.99-4.43v-48.26h8.06v52.7Z" fill="var(--text-color)" stroke-width="0"/>
    <path d="M602.45,307.05l8.17,74.23.99,15.71v-15.71l-.88-74.23h7.83v96.28h-12.03l-8.05-74.11-1.1-15.83v15.83l.99,74.11h-7.83v-96.28h11.92Z" fill="var(--text-color)" stroke-width="0"/>
    <path d="M642.4,394.33v8.99h-17.76v-96.28h17.76v8.99h-9.38v32.18h8.28v9.5h-8.28v36.61h9.38Z" fill="var(--text-color)" stroke-width="0"/>
    <path d="M646.37,307.05h7.28l1.1,5.07v91.21h-8.39v-96.28ZM654.64,358.74h-3.75v-7.98h4.97c1.47,0,2.68-.42,3.64-1.27.96-.84,1.69-2.53,2.21-5.07.51-2.53.77-6.21.77-11.02s-.26-8.59-.77-11.08c-.51-2.49-1.25-4.16-2.21-5-.96-.84-2.17-1.27-3.64-1.27h-4.97v-8.99h3.75c3.82,0,6.95.85,9.38,2.53,2.43,1.69,4.19,4.48,5.3,8.36,1.1,3.89,1.66,9.04,1.66,15.46s-.61,11.17-1.82,14.5c-1.21,3.34-3,5.89-5.35,7.66h-3.09v2.28c-1.77.59-3.79.89-6.07.89ZM657.51,354.3h7.5l5.85,49.02h-8.17l-5.19-49.02Z" fill="var(--text-color)" stroke-width="0"/>
  </g>
</svg>